PathFileType	4	(X/Y/Z)	C:\Users\Basilio\Documents\Thesis Gigler\squatting_fais\c3dfiles\073\SLS_front_pre3\markers_experimental.trc
DataRate	CameraRate	NumFrames	NumMarkers	Units	OrigDataRate	OrigDataStartFrame	OrigNumFrames
200.000000	200.000000	4	61	mm	200.000000	845	1353
Frame#	Time	FHD			LBHD			RBHD			C7			T10			CLAV			LSHO			LUUPA			LMUPA			LDUPA			LLEP			LMEP			LRAD			LUL			LRFIN			RSHO			RUPA1			RMUPA			RDUPA			RLEP			RMEP			RRAD			RUL			RUFIN			LASI			RASI			USACR			LSACR			RSACR			LTHI1			LTHI2			LTHI3			LTHI4			LLFC			LMFC			LTIB1			LTIB2			LTIB3			LTIB4			LLMAL			LMMAL			LHEE			LMT1			LMT2			LMT5			RTHI			RTHI2			RTHI3			RTHI4			RLFC			RMFC			RTIB1			RTIB2			RTIB3			RTIB4			RLMAL			RMMAL			RHEE			RMT1			RMT2			RMT5			
		X1	Y1	Z1	X2	Y2	Z2	X3	Y3	Z3	X4	Y4	Z4	X5	Y5	Z5	X6	Y6	Z6	X7	Y7	Z7	X8	Y8	Z8	X9	Y9	Z9	X10	Y10	Z10	X11	Y11	Z11	X12	Y12	Z12	X13	Y13	Z13	X14	Y14	Z14	X15	Y15	Z15	X16	Y16	Z16	X17	Y17	Z17	X18	Y18	Z18	X19	Y19	Z19	X20	Y20	Z20	X21	Y21	Z21	X22	Y22	Z22	X23	Y23	Z23	X24	Y24	Z24	X25	Y25	Z25	X26	Y26	Z26	X27	Y27	Z27	X28	Y28	Z28	X29	Y29	Z29	X30	Y30	Z30	X31	Y31	Z31	X32	Y32	Z32	X33	Y33	Z33	X34	Y34	Z34	X35	Y35	Z35	X36	Y36	Z36	X37	Y37	Z37	X38	Y38	Z38	X39	Y39	Z39	X40	Y40	Z40	X41	Y41	Z41	X42	Y42	Z42	X43	Y43	Z43	X44	Y44	Z44	X45	Y45	Z45	X46	Y46	Z46	X47	Y47	Z47	X48	Y48	Z48	X49	Y49	Z49	X50	Y50	Z50	X51	Y51	Z51	X52	Y52	Z52	X53	Y53	Z53	X54	Y54	Z54	X55	Y55	Z55	X56	Y56	Z56	X57	Y57	Z57	X58	Y58	Z58	X59	Y59	Z59	X60	Y60	Z60	X61	Y61	Z61	

846	4.225	-123.7270660400391	1528.712646484375	-783.4434204101565	-259.8662109375001	1510.895751953125	-810.4656372070315	-286.8211059570313	1494.283447265625	-677.3866577148439	-319.5429382324219	1410.761108398438	-741.8436279296876	-499.6427001953126	1131.174194335938	-745.4571533203126	-224.3757324218751	1291.920532226563	-741.7326049804689	-239.5092163085938	1359.708251953125	-878.3740234375002	-164.2361450195313	1287.1982421875	-976.4212646484377	-123.2215270996094	1303.846313476563	-952.2829589843752	-102.9679412841797	1256.887329101563	-985.3555908203127	0.3181525468826295	1229.191528320313	-988.1085205078127	-4.951006412506104	1174.616088867188	-943.252136230469	259.3068237304688	1254.914672851563	-873.7124023437502	263.5396728515626	1253.22412109375	-948.705749511719	338.7270507812501	1269.071533203125	-865.772644042969	-229.4853820800782	1348.812744140625	-606.2906494140626	-146.892578125	1251.041870117188	-503.0044250488282	-107.0654907226563	1270.924560546875	-521.4600830078126	-84.9247283935547	1221.344482421875	-496.4197082519532	6.723613262176515	1201.63427734375	-497.8582153320314	1.192154169082642	1145.644165039063	-558.7292480468751	nan	nan	nan	270.2328796386719	1235.2890625	-541.8289794921876	347.6685180664063	1247.349853515625	-624.7482910156251	-388.4465942382814	950.8657836914065	-882.9862060546877	-372.0684509277344	933.2299804687502	-635.0103149414064	-552.6784667968751	1004.593444824219	-745.4046630859376	-565.8942260742189	977.0745849609377	-774.8521118164065	-564.4505615234376	971.2576904296877	-719.1261596679689	-226.2777557373047	741.1802368164064	-940.1331787109377	-146.9152374267578	720.7080688476564	-916.3525390625002	-128.1098175048828	752.9709472656251	-883.6235351562502	-124.886474609375	666.7086181640626	-909.348083496094	-81.33044433593751	628.3375854492189	-909.5217895507815	-89.8483123779297	615.6149902343751	-770.5273437500002	78.70766448974611	506.4810180664064	-854.6629028320315	61.50912857055665	443.2970581054689	-912.927673339844	96.48912048339847	460.7100830078126	-887.9048461914065	144.2096099853516	398.2612609863282	-855.5648193359377	170.7374114990235	268.0054016113282	-887.620788574219	159.7453155517578	287.9754028320313	-802.3862304687502	146.9120788574219	201.7251586914063	-849.3492431640627	316.2551574707032	340.4298400878907	-793.5552368164065	318.7785339355469	344.4366760253907	-832.9682617187502	309.0700683593751	307.5639343261719	-889.076599121094	-357.2550964355469	699.6883544921876	-583.3659057617189	-297.7584228515626	670.1532592773439	-584.3935546875001	-269.5420227050782	688.0479736328126	-587.1293334960939	-280.7158203125001	592.3685302734376	-611.7224121093751	-207.0160675048829	474.7754516601564	-637.1552734375001	-197.6218719482422	482.2712707519532	-764.9770507812501	-207.5851745605469	325.5192565917969	-745.6441040039064	-256.8704833984376	248.2195587158204	-687.3489379882814	-235.8671569824219	244.4749755859376	-730.6146850585939	-268.9089355468751	213.3161163330079	-766.5317993164064	-357.8966369628907	99.89807128906253	-724.5910644531251	-345.4387207031251	130.589111328125	-810.5786743164065	-432.2478027343751	86.51455688476564	-782.8787231445315	-208.0277557373047	54.86531448364259	-787.778259277344	-210.051986694336	51.03616333007814	-747.2850952148439	-255.485824584961	34.23852157592774	-701.0973510742189	
847	4.23	-123.4480972290039	1530.572998046875	-783.385437011719	-259.8257446289063	1512.805419921875	-810.4334106445315	-286.8379516601563	1496.414306640625	-677.2070312500001	-319.6088562011719	1412.529541015625	-741.7015991210939	-499.4920654296876	1132.718505859375	-745.2747192382814	-225.2893524169922	1293.780151367188	-742.0160522460939	-239.5681915283204	1361.661010742188	-878.264099121094	-164.3754119873047	1289.06005859375	-976.3836059570315	-123.2720642089844	1305.632934570313	-952.344421386719	-103.1097030639649	1258.56982421875	-985.303649902344	0.3844500780105592	1230.929565429688	-988.1284179687502	-5.156954765319825	1176.370849609375	-943.151794433594	259.2330322265626	1256.613403320313	-873.6206665039065	263.3802795410157	1254.81689453125	-948.7476806640627	338.8245239257813	1270.900024414063	-866.1785888671877	-229.4443969726563	1350.812622070313	-606.1674804687501	-146.7522583007813	1252.893188476563	-502.9929504394532	-106.9737625122071	1272.783813476563	-521.4014282226564	-84.88997650146486	1223.113525390625	-496.4024353027345	6.800897598266603	1203.343505859375	-497.8055725097657	1.257158279418946	1147.363647460938	-558.6974487304689	nan	nan	nan	270.2524719238282	1236.93505859375	-541.8427734375001	347.7338562011719	1248.891235351563	-624.8988037109376	-387.9655761718751	952.606872558594	-883.021911621094	-371.6085815429688	934.715515136719	-635.0388793945314	-552.4631347656251	1006.345947265625	-745.1743774414064	-565.6831665039064	978.7283935546877	-774.5576782226565	-564.1976318359376	972.8420410156252	-718.8531494140626	-226.3743896484376	742.2985229492189	-939.8894653320315	-147.2244262695313	721.7413940429689	-916.2247314453127	-128.1628875732422	753.8914794921876	-883.4355468750002	-125.0943069458008	667.8762817382814	-909.4659423828127	-81.65930175781251	629.1862182617189	-909.3441162109377	-90.28588104248048	616.3585815429689	-770.2264404296877	78.12335205078126	506.8311767578126	-854.3833007812502	60.86516571044923	443.6254882812501	-912.5550537109377	95.81424713134767	461.065643310547	-887.7121582031252	143.3336944580078	398.5781860351564	-855.3436279296877	169.7685546875	268.2443542480469	-887.436706542969	158.5779876708985	288.2131042480469	-802.1314086914065	145.6241760253907	201.9978332519532	-849.2711181640627	316.2553405761719	340.2069396972657	-794.1313476562502	318.2823181152344	344.7236633300782	-832.606384277344	308.0697326660157	307.4370422363282	-888.671813964844	-357.5567016601563	700.9746093750001	-583.1395263671876	-298.2224426269532	671.1654052734376	-584.4691162109376	-269.8206787109376	688.9506835937501	-587.2287597656251	-281.4530944824219	593.2743530273439	-611.8392333984376	-208.1759643554688	475.3779296875001	-637.2443237304689	-198.6534881591797	482.8030700683595	-765.0881347656251	-208.4783782958985	325.9822692871094	-745.7232666015626	-257.2273864746094	248.6507415771485	-687.3822021484376	-236.3510894775391	244.9794921875001	-730.6760864257814	-269.2992553710938	213.7654876708985	-766.5404663085939	-357.9910888671876	100.0131301879883	-724.6373901367189	-345.5483093261719	130.6080627441407	-810.6060180664065	-432.2367248535157	86.53377532958986	-782.8935546875002	-207.9977416992188	54.88900375366212	-787.7863769531252	-210.0537872314454	51.05602264404298	-747.2841796875001	-255.4928436279297	34.21893692016602	-701.0933837890626	
848	4.235	-123.4497375488282	1532.389282226563	-783.3793945312502	-259.9801940917969	1514.691772460938	-810.3829345703127	-286.8355407714844	1498.293579101563	-677.1539916992189	-319.6997680664063	1414.435424804688	-741.6380004882814	-499.3181457519532	1134.307983398438	-745.1070556640626	-224.6770477294922	1295.787109375	-741.7018432617189	-239.6922760009766	1363.37939453125	-878.322692871094	-164.5708160400391	1290.618041992188	-976.2091064453127	-123.4552612304688	1307.49267578125	-952.305114746094	-103.3497772216797	1260.180297851563	-985.275085449219	-0.1666470021009445	1232.456787109375	-988.1553344726565	-5.250330448150636	1177.206176757813	-942.837829589844	259.0121154785157	1258.403564453125	-873.835632324219	263.2960815429688	1256.6865234375	-948.872253417969	338.3605041503907	1272.802978515625	-866.110778808594	-229.4459381103516	1352.59326171875	-606.0073242187501	-146.7050476074219	1254.755859375	-502.8951110839845	-106.8982315063477	1274.576904296875	-521.5154418945314	-84.76096343994142	1225.036499023438	-496.4316406250001	6.820415973663332	1205.187866210938	-497.852020263672	1.30343222618103	1149.103149414063	-558.7310791015626	nan	nan	nan	270.2690124511719	1238.559204101563	-541.9826660156251	347.7290954589844	1250.4970703125	-624.9487915039064	-387.9954833984376	954.355651855469	-882.9587402343752	-371.1098327636719	936.222351074219	-635.0205688476564	-552.1993408203126	1007.876647949219	-744.9190063476564	-565.3977661132814	980.4082641601565	-774.2954101562502	-563.7182617187501	974.5169067382815	-718.4699707031251	-226.2206573486329	743.5833740234376	-939.6902465820315	-147.3057250976563	722.6655883789064	-916.0859985351565	-128.2208099365235	754.8240966796876	-883.358337402344	-125.33740234375	668.9493408203126	-909.3555297851565	-81.9038543701172	629.9593505859376	-909.1304321289065	-90.77430725097658	617.0820312500001	-770.0877685546877	77.49957275390626	507.2353515625001	-854.236999511719	60.55073547363283	443.8509826660157	-911.7542114257815	94.98522186279298	461.4585876464845	-887.4920043945315	142.5431823730469	398.8384094238282	-855.192565917969	168.7324523925782	268.5730895996094	-887.2376098632815	157.5135040283203	288.4874267578126	-801.8634033203127	144.3419342041016	202.315902709961	-849.124206542969	314.1404418945313	340.1370544433594	-792.9217529296877	316.7434082031251	344.1197204589844	-831.9129638671877	307.2763366699219	307.4282226562501	-888.2463989257815	-357.7896728515626	702.1740722656251	-583.3530883789064	-298.5771484375001	672.1751098632814	-584.6587524414064	-270.1619262695313	689.7176513671876	-587.2672119140626	-282.2132568359376	594.1773681640626	-612.0146484375001	-209.386947631836	475.9818115234376	-637.5308837890626	-200.1297607421876	483.3971557617189	-765.3173217773439	-209.1278381347657	326.3933105468751	-745.6670532226564	-257.6504516601563	249.0750427246094	-687.5012817382814	-236.7380828857422	245.3599548339844	-730.8825683593751	-270.4973754882813	214.3277893066407	-766.5863647460939	-358.0400695800782	100.1254272460938	-724.6668090820314	-345.5295104980469	130.6357421875	-810.7624511718752	-432.2264099121095	86.51116943359376	-782.8818359375002	-208.0120391845704	54.81227874755861	-787.9294433593752	-210.0603179931641	51.05061721801759	-747.2659301757814	-255.5086822509766	34.25898361206055	-701.1234741210939	
849	4.24	-123.3214492797852	1534.334228515625	-783.3824462890627	-259.9490051269532	1516.637939453125	-810.3620605468752	-286.9236755371094	1500.398559570313	-677.2343139648439	-319.8080444335938	1416.280883789063	-741.5112915039064	-499.0112304687501	1135.834106445313	-744.8007202148439	-224.7586517333985	1297.776977539063	-741.7431030273439	-239.8263244628907	1365.307495117188	-878.335876464844	-164.8079986572266	1292.501342773438	-976.273864746094	-123.6378250122071	1309.135864257813	-952.3736572265627	-103.5406646728516	1262.104614257813	-985.242614746094	-0.2513256669044495	1234.326049804688	-988.1126098632815	-5.67044496536255	1179.789184570313	-942.9199218750002	258.8064880371094	1260.182250976563	-873.7915649414065	262.9642639160157	1258.305053710938	-948.798767089844	338.8214111328126	1274.695190429688	-866.6348876953127	-229.3884735107422	1354.513305664063	-605.8264770507814	-146.5439147949219	1256.60107421875	-502.8581848144532	-106.8284225463867	1276.3876953125	-521.4572143554689	-84.77722167968751	1226.722045898438	-496.486785888672	6.903600215911867	1206.836669921875	-497.8065490722657	1.218593716621399	1150.882934570313	-558.7311401367189	nan	nan	nan	270.3145446777344	1240.140991210938	-542.0625610351564	347.7557983398438	1252.063720703125	-625.1141357421876	-387.6748046875001	956.128356933594	-882.9591064453127	-370.6059570312501	937.6674804687502	-635.0035400390626	-551.7784423828126	1009.510375976563	-744.5938720703126	-565.0711669921876	982.0443115234377	-773.9002075195315	-563.2363281250001	976.0884399414065	-718.1741943359376	-226.1354980468751	744.9609375000001	-939.2124633789065	-147.478515625	723.5410766601564	-915.875915527344	-128.2613372802735	755.6616210937501	-883.1064453125002	-125.4921112060547	669.7805175781251	-909.1272583007815	-82.22266387939455	630.6427001953126	-908.9367675781252	-91.37979888916017	617.6004638671876	-770.2510986328127	76.84853363037111	507.762176513672	-853.9566040039065	59.9691734313965	444.3078002929689	-911.6037597656252	94.28811645507814	461.9262695312501	-887.2707519531252	141.6498413085938	399.1368713378907	-855.186950683594	167.7090148925782	268.9166259765626	-887.0166015625002	156.4506378173828	288.7372741699219	-801.7578735351565	143.1378021240235	202.6786651611329	-848.9337158203127	313.2114257812501	340.0240783691407	-792.5164794921877	316.0968933105469	344.4291076660157	-831.5522460937502	306.3695678710938	307.4081726074219	-887.812438964844	-358.0381164550782	703.3525390625001	-583.1735229492189	-298.8673095703126	673.1049804687501	-584.6897583007814	-270.5076904296876	690.5910034179689	-587.4132080078126	-282.9501647949219	595.1594238281251	-612.2326049804689	-210.5131988525391	476.6750488281251	-637.7119140625001	-201.4154205322266	484.0150451660157	-765.4567871093751	-209.9213409423829	326.9526977539063	-745.8513793945314	-258.1239624023438	249.4613189697266	-687.6975097656251	-237.0639801025391	245.5186614990235	-731.0006713867189	-269.8470458984376	214.2000885009766	-766.6726074218751	-358.1015625000001	100.190658569336	-724.7125854492189	-345.6573181152344	130.6457977294922	-810.8315429687502	-432.2300109863282	86.53919219970705	-782.8833618164065	-208.0195770263672	54.80293273925783	-787.9188232421877	-210.0802001953126	51.030086517334	-747.3284301757814	-255.5079193115235	34.2735824584961	-701.1578369140626	
